<?xml version="1.0" encoding="UTF-8"?>
<svg width="24px" height="22px" viewBox="0 0 24 22" version="1.1" xmlns="http://www.w3.org/2000/svg" xmlns:xlink="http://www.w3.org/1999/xlink">
    <!-- Generator: Sketch 51.3 (57544) - http://www.bohemiancoding.com/sketch -->
    <title>icons/AttachmentIcon</title>
    <desc>Created with Sketch.</desc>
    <defs></defs>
    <g id="icons/AttachmentIcon" stroke="none" stroke-width="1" fill="none" fill-rule="evenodd">
        <path d="M16.4314521,5.98241096 L7.71939726,14.7488767 C7.43013699,15.0378082 6.96241096,15.0378082 6.67358904,14.7488767 C6.38487671,14.4606027 6.38487671,13.9876164 6.67358904,13.6989589 L16.8845479,3.42345205 C17.3076712,2.99539726 17.9945753,2.99539726 18.4174795,3.42345205 L20.717589,5.73841096 C21.1404932,6.16153425 21.1404932,6.85358904 20.717589,7.28175342 L10.5070685,17.5571507 C8.68005479,19.3939178 5.71786301,19.3939178 3.88591781,17.5571507 C2.05846575,15.7149041 2.05846575,12.7333699 3.88591781,10.8910137 L12.5979726,2.12427397 C13.0808219,1.64142466 13.0808219,0.854794521 12.5979726,0.371780822 C12.1202192,-0.111232877 11.3384658,-0.111232877 10.8556712,0.371780822 L2.14361644,9.13857534 C-0.64460274,11.9467945 -0.64460274,16.5016986 2.14361644,19.3093151 C4.93654795,22.1172603 9.46186301,22.1172603 12.2494247,19.3093151 L23.2265753,8.26252055 C24.187726,7.29172603 24.187726,5.72356164 23.2265753,4.75293151 L19.3933151,0.899616438 C18.4326027,-0.0713424658 16.8689863,-0.0713424658 15.9084384,0.899616438 L4.93128767,11.9467945 C3.68180822,13.2010959 3.68180822,15.2419726 4.93128767,16.5016986 C6.18558904,17.7612055 8.21194521,17.7612055 9.46186301,16.5016986 L18.1739726,7.73479452 C18.6568219,7.25183562 18.6568219,6.46526027 18.1739726,5.98246575 C17.6907397,5.49961644 16.9142466,5.49961644 16.4314521,5.98241096 Z" id="Shape" fill="#000000"></path>
    </g>
</svg>