<?xml version="1.0" encoding="UTF-8"?>
<svg width="24px" height="24px" viewBox="0 0 24 24" version="1.1" xmlns="http://www.w3.org/2000/svg" xmlns:xlink="http://www.w3.org/1999/xlink">
    <!-- Generator: Sketch 52 (66869) - http://www.bohemiancoding.com/sketch -->
    <title>icons/AttachmentIcon</title>
    <desc>Created with Sketch.</desc>
    <g id="icons/AttachmentIcon" stroke="none" stroke-width="1" fill="none" fill-rule="evenodd">
        <path d="M16.379,7.17289041 L7.66694521,15.9393562 C7.37768493,16.2282877 6.9099589,16.2282877 6.62113699,15.9393562 C6.33242466,15.6510822 6.33242466,15.1780959 6.62113699,14.8894384 L16.8320959,4.61393151 C17.2552192,4.18587671 17.9421233,4.18587671 18.3650274,4.61393151 L20.665137,6.92889041 C21.0880411,7.3520137 21.0880411,8.04406849 20.665137,8.47223288 L10.4546164,18.7476301 C8.62760274,20.5843973 5.66541096,20.5843973 3.83346575,18.7476301 C2.0060137,16.9053836 2.0060137,13.9238493 3.83346575,12.0814932 L12.5455205,3.31475342 C13.0283699,2.83190411 13.0283699,2.04527397 12.5455205,1.56226027 C12.0677671,1.07924658 11.2860137,1.07924658 10.8032192,1.56226027 L2.09116438,10.3290548 C-0.697054795,13.137274 -0.697054795,17.6921781 2.09116438,20.4997945 C4.88409589,23.3077397 9.40941096,23.3077397 12.1969726,20.4997945 L23.1741233,9.453 C24.135274,8.48220548 24.135274,6.9140411 23.1741233,5.94341096 L19.340863,2.09009589 C18.3801507,1.11913699 16.8165342,1.11913699 15.8559863,2.09009589 L4.87883562,13.137274 C3.62935616,14.3915753 3.62935616,16.4324521 4.87883562,17.6921781 C6.13313699,18.9516849 8.15949315,18.9516849 9.40941096,17.6921781 L18.1215205,8.92527397 C18.6043699,8.44231507 18.6043699,7.65573973 18.1215205,7.17294521 C17.6382877,6.69009589 16.8617945,6.69009589 16.379,7.17289041 Z" id="Shape" fill="#000000"></path>
    </g>
</svg>