<?xml version="1.0" encoding="UTF-8"?>
<svg width="24px" height="24px" viewBox="0 0 24 24" version="1.1" xmlns="http://www.w3.org/2000/svg" xmlns:xlink="http://www.w3.org/1999/xlink">
    <title>icons/BoatIcon</title>
    <g id="icons/BoatIcon" stroke="none" stroke-width="1" fill="none" fill-rule="evenodd">
        <path d="M23,11 L20.9,11 C20.7,9.3 20,7.7 19,6.4 L20.5,4.9 C20.9,4.5 20.9,3.9 20.5,3.5 C20.1,3.1 19.5,3.1 19.1,3.5 L17.6,5 C16.3,4 14.7,3.3 13,3.1 L13,1 C13,0.4 12.6,0 12,0 C11.4,0 11,0.4 11,1 L11,3.1 C9.3,3.3 7.7,3.9 6.4,5 L4.9,3.5 C4.5,3.1 3.9,3.1 3.5,3.5 C3.1,3.9 3.1,4.5 3.5,4.9 L5,6.4 C4,7.7 3.3,9.3 3.1,11 L1,11 C0.4,11 0,11.4 0,12 C0,12.6 0.4,13 1,13 L3.1,13 C3.3,14.7 4,16.3 5,17.6 L3.5,19.1 C3.1,19.5 3.1,20.1 3.5,20.5 C3.9,20.9 4.5,20.9 4.9,20.5 L6.4,19 C7.7,20 9.3,20.7 11,20.9 L11,23 C11,23.6 11.4,24 12,24 C12.6,24 13,23.6 13,23 L13,20.9 C14.7,20.7 16.3,20 17.6,19 L19.1,20.5 C19.5,20.9 20.1,20.9 20.5,20.5 C20.9,20.1 20.9,19.5 20.5,19.1 L19,17.6 C20,16.3 20.7,14.7 20.9,13 L23,13 C23.6,13 24,12.6 24,12 C24,11.4 23.6,11 23,11 Z M18.9,11 L15.8,11 C15.7,10.6 15.6,10.3 15.4,10 L17.6,7.8 C18.3,8.7 18.8,9.8 18.9,11 Z M14.9,12.5 C14.9,12.7 14.8,12.8 14.8,13 C14.8,13.1 14.7,13.2 14.7,13.3 C14.4,13.9 13.9,14.4 13.3,14.7 C13.2,14.7 13.1,14.8 13,14.8 C12.8,14.9 12.7,14.9 12.5,14.9 C12.4,15 12.2,15 12,15 C11.8,15 11.6,15 11.5,14.9 C11.3,14.9 11.2,14.8 11,14.8 C10.9,14.8 10.8,14.7 10.7,14.7 L10.7,14.7 C10.1,14.4 9.6,13.9 9.3,13.3 C9.3,13.2 9.2,13.1 9.2,13 C9.1,12.8 9.1,12.7 9.1,12.5 C9,12.4 9,12.2 9,12 C9,11.8 9,11.6 9.1,11.5 C9.1,11.3 9.2,11.2 9.2,11 C9.2,10.9 9.3,10.8 9.3,10.7 C9.6,10.1 10.1,9.6 10.7,9.3 C10.8,9.3 10.9,9.2 11,9.2 C11.2,9.1 11.3,9.1 11.5,9.1 C11.6,9 11.8,9 12,9 C12.2,9 12.4,9 12.5,9.1 C12.7,9.1 12.8,9.2 13,9.2 C13.1,9.2 13.2,9.3 13.3,9.3 C13.9,9.6 14.4,10.1 14.7,10.7 C14.7,10.8 14.8,10.9 14.8,11 C14.9,11.2 14.9,11.3 14.9,11.5 C14.9,11.7 15,11.8 15,12 C15,12.2 15,12.4 14.9,12.5 Z M16.2,6.4 L14,8.6 C13.7,8.4 13.3,8.3 13,8.2 L13,5.1 C14.2,5.2 15.3,5.7 16.2,6.4 Z M11,5.1 L11,8.2 C10.6,8.3 10.3,8.4 10,8.6 L7.8,6.4 C8.7,5.7 9.8,5.2 11,5.1 Z M6.4,7.8 L8.6,10 C8.4,10.3 8.3,10.7 8.2,11 L5.1,11 C5.2,9.8 5.7,8.7 6.4,7.8 Z M5.1,13 L8.2,13 C8.3,13.4 8.4,13.7 8.6,14 L6.4,16.2 C5.7,15.3 5.2,14.2 5.1,13 Z M7.8,17.6 L10,15.4 C10.3,15.6 10.7,15.7 11,15.8 L11,18.9 C9.8,18.8 8.7,18.3 7.8,17.6 Z M13,18.9 L13,15.8 C13.4,15.7 13.7,15.6 14,15.4 L16.2,17.6 C15.3,18.3 14.2,18.8 13,18.9 Z M17.6,16.2 L15.4,14 C15.6,13.7 15.7,13.3 15.8,13 L18.9,13 C18.8,14.2 18.3,15.3 17.6,16.2 Z" id="Shape" fill="#000000" fill-rule="nonzero"></path>
        <circle id="Oval" fill="#000000" cx="12" cy="12" r="3"></circle>
    </g>
</svg>