<?xml version="1.0" encoding="UTF-8"?>
<svg width="24px" height="24px" viewBox="0 0 24 24" version="1.1" xmlns="http://www.w3.org/2000/svg" xmlns:xlink="http://www.w3.org/1999/xlink">
    <title>icons/BusIcon</title>
    <g id="icons/BusIcon" stroke="none" stroke-width="1" fill="none" fill-rule="evenodd">
        <path d="M7.14285714,16.2857143 C7.14285714,15.8125 6.97544643,15.4084821 6.640625,15.0736607 C6.30580357,14.7388393 5.90178571,14.5714286 5.42857143,14.5714286 C4.95535714,14.5714286 4.55133929,14.7388393 4.21651786,15.0736607 C3.88169643,15.4084821 3.71428571,15.8125 3.71428571,16.2857143 C3.71428571,16.7589286 3.88169643,17.1629464 4.21651786,17.4977679 C4.55133929,17.8325893 4.95535714,18 5.42857143,18 C5.90178571,18 6.30580357,17.8325893 6.640625,17.4977679 C6.97544643,17.1629464 7.14285714,16.7589286 7.14285714,16.2857143 Z M20.8571429,16.2857143 C20.8571429,15.8125 20.6897321,15.4084821 20.3549107,15.0736607 C20.0200893,14.7388393 19.6160714,14.5714286 19.1428571,14.5714286 C18.6696429,14.5714286 18.265625,14.7388393 17.9308036,15.0736607 C17.5959821,15.4084821 17.4285714,15.8125 17.4285714,16.2857143 C17.4285714,16.7589286 17.5959821,17.1629464 17.9308036,17.4977679 C18.265625,17.8325893 18.6696429,18 19.1428571,18 C19.6160714,18 20.0200893,17.8325893 20.3549107,17.4977679 C20.6897321,17.1629464 20.8571429,16.7589286 20.8571429,16.2857143 Z M20.2410714,10.9821429 L19.2767857,5.83928571 C19.2321429,5.63392857 19.1316964,5.46651786 18.9754464,5.33705357 C18.8191964,5.20758929 18.6383929,5.14285714 18.4330357,5.14285714 L6.13839286,5.14285714 C5.93303571,5.14285714 5.75223214,5.20758929 5.59598214,5.33705357 C5.43973214,5.46651786 5.33928571,5.63392857 5.29464286,5.83928571 L4.33035714,10.9821429 C4.28571429,11.25 4.34821429,11.4866071 4.51785714,11.6919643 C4.6875,11.8973214 4.90625,12 5.17410714,12 L19.3973214,12 C19.6651786,12 19.8839286,11.8973214 20.0535714,11.6919643 C20.2232143,11.4866071 20.2857143,11.25 20.2410714,10.9821429 Z M17.2142857,2.78571429 C17.2142857,2.60714286 17.1517857,2.45535714 17.0267857,2.33035714 C16.9017857,2.20535714 16.75,2.14285714 16.5714286,2.14285714 L8,2.14285714 C7.82142857,2.14285714 7.66964286,2.20535714 7.54464286,2.33035714 C7.41964286,2.45535714 7.35714286,2.60714286 7.35714286,2.78571429 C7.35714286,2.96428571 7.41964286,3.11607143 7.54464286,3.24107143 C7.66964286,3.36607143 7.82142857,3.42857143 8,3.42857143 L16.5714286,3.42857143 C16.75,3.42857143 16.9017857,3.36607143 17.0267857,3.24107143 C17.1517857,3.11607143 17.2142857,2.96428571 17.2142857,2.78571429 Z M22.5714286,12.4955357 L22.5714286,20.5714286 L20.8571429,20.5714286 L20.8571429,22.2857143 C20.8571429,22.7589286 20.6897321,23.1629464 20.3549107,23.4977679 C20.0200893,23.8325893 19.6160714,24 19.1428571,24 C18.6696429,24 18.265625,23.8325893 17.9308036,23.4977679 C17.5959821,23.1629464 17.4285714,22.7589286 17.4285714,22.2857143 L17.4285714,20.5714286 L7.14285714,20.5714286 L7.14285714,22.2857143 C7.14285714,22.7589286 6.97544643,23.1629464 6.640625,23.4977679 C6.30580357,23.8325893 5.90178571,24 5.42857143,24 C4.95535714,24 4.55133929,23.8325893 4.21651786,23.4977679 C3.88169643,23.1629464 3.71428571,22.7589286 3.71428571,22.2857143 L3.71428571,20.5714286 L2,20.5714286 L2,12.4955357 C2,11.4955357 2.11160714,10.5 2.33482143,9.50892857 L3.71428571,3.42857143 C3.79464286,2.73214286 4.22991071,2.12053571 5.02008929,1.59375 C5.81026786,1.06696429 6.83705357,0.669642857 8.10044643,0.401785714 C9.36383929,0.133928571 10.7589286,0 12.2857143,0 C13.8125,0 15.2075893,0.133928571 16.4709821,0.401785714 C17.734375,0.669642857 18.7611607,1.06696429 19.5513393,1.59375 C20.3415179,2.12053571 20.7767857,2.73214286 20.8571429,3.42857143 L22.2633929,9.50892857 C22.46875,10.4196429 22.5714286,11.4151786 22.5714286,12.4955357 Z" id="Shape" fill="#000000" fill-rule="nonzero"></path>
    </g>
</svg>