<?xml version="1.0" encoding="UTF-8"?>
<svg width="21px" height="24px" viewBox="0 0 21 24" version="1.1" xmlns="http://www.w3.org/2000/svg" xmlns:xlink="http://www.w3.org/1999/xlink">
    <!-- Generator: Sketch 51.3 (57544) - http://www.bohemiancoding.com/sketch -->
    <title>icons/BusIcon</title>
    <desc>Created with Sketch.</desc>
    <defs></defs>
    <g id="icons/BusIcon" stroke="none" stroke-width="1" fill="none" fill-rule="evenodd">
        <path d="M5.14285714,16.2857143 C5.14285714,15.8125 4.97544643,15.4084821 4.640625,15.0736607 C4.30580357,14.7388393 3.90178571,14.5714286 3.42857143,14.5714286 C2.95535714,14.5714286 2.55133929,14.7388393 2.21651786,15.0736607 C1.88169643,15.4084821 1.71428571,15.8125 1.71428571,16.2857143 C1.71428571,16.7589286 1.88169643,17.1629464 2.21651786,17.4977679 C2.55133929,17.8325893 2.95535714,18 3.42857143,18 C3.90178571,18 4.30580357,17.8325893 4.640625,17.4977679 C4.97544643,17.1629464 5.14285714,16.7589286 5.14285714,16.2857143 Z M18.8571429,16.2857143 C18.8571429,15.8125 18.6897321,15.4084821 18.3549107,15.0736607 C18.0200893,14.7388393 17.6160714,14.5714286 17.1428571,14.5714286 C16.6696429,14.5714286 16.265625,14.7388393 15.9308036,15.0736607 C15.5959821,15.4084821 15.4285714,15.8125 15.4285714,16.2857143 C15.4285714,16.7589286 15.5959821,17.1629464 15.9308036,17.4977679 C16.265625,17.8325893 16.6696429,18 17.1428571,18 C17.6160714,18 18.0200893,17.8325893 18.3549107,17.4977679 C18.6897321,17.1629464 18.8571429,16.7589286 18.8571429,16.2857143 Z M18.2410714,10.9821429 L17.2767857,5.83928571 C17.2321429,5.63392857 17.1316964,5.46651786 16.9754464,5.33705357 C16.8191964,5.20758929 16.6383929,5.14285714 16.4330357,5.14285714 L4.13839286,5.14285714 C3.93303571,5.14285714 3.75223214,5.20758929 3.59598214,5.33705357 C3.43973214,5.46651786 3.33928571,5.63392857 3.29464286,5.83928571 L2.33035714,10.9821429 C2.28571429,11.25 2.34821429,11.4866071 2.51785714,11.6919643 C2.6875,11.8973214 2.90625,12 3.17410714,12 L17.3973214,12 C17.6651786,12 17.8839286,11.8973214 18.0535714,11.6919643 C18.2232143,11.4866071 18.2857143,11.25 18.2410714,10.9821429 Z M15.2142857,2.78571429 C15.2142857,2.60714286 15.1517857,2.45535714 15.0267857,2.33035714 C14.9017857,2.20535714 14.75,2.14285714 14.5714286,2.14285714 L6,2.14285714 C5.82142857,2.14285714 5.66964286,2.20535714 5.54464286,2.33035714 C5.41964286,2.45535714 5.35714286,2.60714286 5.35714286,2.78571429 C5.35714286,2.96428571 5.41964286,3.11607143 5.54464286,3.24107143 C5.66964286,3.36607143 5.82142857,3.42857143 6,3.42857143 L14.5714286,3.42857143 C14.75,3.42857143 14.9017857,3.36607143 15.0267857,3.24107143 C15.1517857,3.11607143 15.2142857,2.96428571 15.2142857,2.78571429 Z M20.5714286,12.4955357 L20.5714286,20.5714286 L18.8571429,20.5714286 L18.8571429,22.2857143 C18.8571429,22.7589286 18.6897321,23.1629464 18.3549107,23.4977679 C18.0200893,23.8325893 17.6160714,24 17.1428571,24 C16.6696429,24 16.265625,23.8325893 15.9308036,23.4977679 C15.5959821,23.1629464 15.4285714,22.7589286 15.4285714,22.2857143 L15.4285714,20.5714286 L5.14285714,20.5714286 L5.14285714,22.2857143 C5.14285714,22.7589286 4.97544643,23.1629464 4.640625,23.4977679 C4.30580357,23.8325893 3.90178571,24 3.42857143,24 C2.95535714,24 2.55133929,23.8325893 2.21651786,23.4977679 C1.88169643,23.1629464 1.71428571,22.7589286 1.71428571,22.2857143 L1.71428571,20.5714286 L0,20.5714286 L0,12.4955357 C0,11.4955357 0.111607143,10.5 0.334821429,9.50892857 L1.71428571,3.42857143 C1.79464286,2.73214286 2.22991071,2.12053571 3.02008929,1.59375 C3.81026786,1.06696429 4.83705357,0.669642857 6.10044643,0.401785714 C7.36383929,0.133928571 8.75892857,0 10.2857143,0 C11.8125,0 13.2075893,0.133928571 14.4709821,0.401785714 C15.734375,0.669642857 16.7611607,1.06696429 17.5513393,1.59375 C18.3415179,2.12053571 18.7767857,2.73214286 18.8571429,3.42857143 L20.2633929,9.50892857 C20.46875,10.4196429 20.5714286,11.4151786 20.5714286,12.4955357 Z" id="Shape" fill="#000000" fill-rule="nonzero"></path>
    </g>
</svg>