<?xml version="1.0" encoding="UTF-8"?>
<svg width="24px" height="24px" viewBox="0 0 24 24" version="1.1" xmlns="http://www.w3.org/2000/svg" xmlns:xlink="http://www.w3.org/1999/xlink">
    <!-- Generator: Sketch 52 (66869) - http://www.bohemiancoding.com/sketch -->
    <title>icons/CheckIcon</title>
    <desc>Created with Sketch.</desc>
    <g id="icons/CheckIcon" stroke="none" stroke-width="1" fill="none" fill-rule="evenodd">
        <path d="M20.0625,9.46875 C20.0625,9.17708333 19.96875,8.9375 19.78125,8.75 L18.359375,7.34375 C18.1614583,7.14583333 17.9270833,7.046875 17.65625,7.046875 C17.3854167,7.046875 17.1510417,7.14583333 16.953125,7.34375 L10.578125,13.703125 L7.046875,10.171875 C6.84895833,9.97395833 6.61458333,9.875 6.34375,9.875 C6.07291667,9.875 5.83854167,9.97395833 5.640625,10.171875 L4.21875,11.578125 C4.03125,11.765625 3.9375,12.0052083 3.9375,12.296875 C3.9375,12.578125 4.03125,12.8125 4.21875,13 L9.875,18.65625 C10.0729167,18.8541667 10.3072917,18.953125 10.578125,18.953125 C10.859375,18.953125 11.0989583,18.8541667 11.296875,18.65625 L19.78125,10.171875 C19.96875,9.984375 20.0625,9.75 20.0625,9.46875 Z M24,12 C24,14.1770833 23.4635417,16.1848958 22.390625,18.0234375 C21.3177083,19.8619792 19.8619792,21.3177083 18.0234375,22.390625 C16.1848958,23.4635417 14.1770833,24 12,24 C9.82291667,24 7.81510417,23.4635417 5.9765625,22.390625 C4.13802083,21.3177083 2.68229167,19.8619792 1.609375,18.0234375 C0.536458333,16.1848958 0,14.1770833 0,12 C0,9.82291667 0.536458333,7.81510417 1.609375,5.9765625 C2.68229167,4.13802083 4.13802083,2.68229167 5.9765625,1.609375 C7.81510417,0.536458333 9.82291667,0 12,0 C14.1770833,0 16.1848958,0.536458333 18.0234375,1.609375 C19.8619792,2.68229167 21.3177083,4.13802083 22.390625,5.9765625 C23.4635417,7.81510417 24,9.82291667 24,12 Z" id="Shape" fill="#000000" fill-rule="nonzero"></path>
    </g>
</svg>