<?xml version="1.0" encoding="UTF-8"?>
<svg width="24px" height="24px" viewBox="0 0 24 24" version="1.1" xmlns="http://www.w3.org/2000/svg" xmlns:xlink="http://www.w3.org/1999/xlink">
    <!-- Generator: Sketch 51.3 (57544) - http://www.bohemiancoding.com/sketch -->
    <title>icons/CoffeeIcon</title>
    <desc>Created with Sketch.</desc>
    <defs></defs>
    <g id="icons/CoffeeIcon" stroke="none" stroke-width="1" fill="none" fill-rule="evenodd">
        <path d="M21.5172414,7.96551724 C21.5172414,7.27586207 21.2758621,6.68965517 20.7931034,6.20689655 C20.3103448,5.72413793 19.7241379,5.48275862 19.0344828,5.48275862 L18.2068966,5.48275862 L18.2068966,10.4482759 L19.0344828,10.4482759 C19.7241379,10.4482759 20.3103448,10.2068966 20.7931034,9.72413793 C21.2758621,9.24137931 21.5172414,8.65517241 21.5172414,7.96551724 Z M0,17.8965517 L23.1724138,17.8965517 C23.1724138,18.8103448 22.8491379,19.5905172 22.2025862,20.237069 C21.5560345,20.8836207 20.7758621,21.2068966 19.862069,21.2068966 L3.31034483,21.2068966 C2.39655172,21.2068966 1.61637931,20.8836207 0.969827586,20.237069 C0.323275862,19.5905172 0,18.8103448 0,17.8965517 Z M24,7.96551724 C24,9.3362069 23.5150862,10.5064655 22.5452586,11.4762931 C21.575431,12.4461207 20.4051724,12.9310345 19.0344828,12.9310345 L18.2068966,12.9310345 L18.2068966,13.3448276 C18.2068966,14.137931 17.9224138,14.8189655 17.3534483,15.387931 C16.7844828,15.9568966 16.1034483,16.2413793 15.3103448,16.2413793 L6.20689655,16.2413793 C5.4137931,16.2413793 4.73275862,15.9568966 4.1637931,15.387931 C3.59482759,14.8189655 3.31034483,14.137931 3.31034483,13.3448276 L3.31034483,3.82758621 C3.31034483,3.60344828 3.39224138,3.40948276 3.55603448,3.24568966 C3.71982759,3.08189655 3.9137931,3 4.13793103,3 L19.0344828,3 C20.4051724,3 21.575431,3.48491379 22.5452586,4.45474138 C23.5150862,5.42456897 24,6.59482759 24,7.96551724 Z" id="Shape" fill="#000000" fill-rule="nonzero"></path>
    </g>
</svg>