<?xml version="1.0" encoding="UTF-8"?>
<svg width="24px" height="24px" viewBox="0 0 24 24" version="1.1" xmlns="http://www.w3.org/2000/svg" xmlns:xlink="http://www.w3.org/1999/xlink">
    <!-- Generator: Sketch 52 (66869) - http://www.bohemiancoding.com/sketch -->
    <title>icons/CoffeeIcon</title>
    <desc>Created with Sketch.</desc>
    <g id="icons/CoffeeIcon" stroke="none" stroke-width="1" fill="none" fill-rule="evenodd">
        <path d="M21.5172414,10.9655172 C21.5172414,10.2758621 21.2758621,9.68965517 20.7931034,9.20689655 C20.3103448,8.72413793 19.7241379,8.48275862 19.0344828,8.48275862 L18.2068966,8.48275862 L18.2068966,13.4482759 L19.0344828,13.4482759 C19.7241379,13.4482759 20.3103448,13.2068966 20.7931034,12.7241379 C21.2758621,12.2413793 21.5172414,11.6551724 21.5172414,10.9655172 Z M0,20.8965517 L23.1724138,20.8965517 C23.1724138,21.8103448 22.8491379,22.5905172 22.2025862,23.237069 C21.5560345,23.8836207 20.7758621,24.2068966 19.862069,24.2068966 L3.31034483,24.2068966 C2.39655172,24.2068966 1.61637931,23.8836207 0.969827586,23.237069 C0.323275862,22.5905172 0,21.8103448 0,20.8965517 Z M24,10.9655172 C24,12.3362069 23.5150862,13.5064655 22.5452586,14.4762931 C21.575431,15.4461207 20.4051724,15.9310345 19.0344828,15.9310345 L18.2068966,15.9310345 L18.2068966,16.3448276 C18.2068966,17.137931 17.9224138,17.8189655 17.3534483,18.387931 C16.7844828,18.9568966 16.1034483,19.2413793 15.3103448,19.2413793 L6.20689655,19.2413793 C5.4137931,19.2413793 4.73275862,18.9568966 4.1637931,18.387931 C3.59482759,17.8189655 3.31034483,17.137931 3.31034483,16.3448276 L3.31034483,6.82758621 C3.31034483,6.60344828 3.39224138,6.40948276 3.55603448,6.24568966 C3.71982759,6.08189655 3.9137931,6 4.13793103,6 L19.0344828,6 C20.4051724,6 21.575431,6.48491379 22.5452586,7.45474138 C23.5150862,8.42456897 24,9.59482759 24,10.9655172 Z" id="Shape" fill="#000000" fill-rule="nonzero"></path>
        <g id="Group" transform="translate(6.000000, 0.000000)" fill="#000000">
            <path d="M1,5 C1.552,5 2,4.62666667 2,4.16666667 L2,2.5 C2,2.04 1.552,1.66666667 1,1.66666667 C0.448,1.66666667 0,2.04 0,2.5 L0,4.16666667 C0,4.62666667 0.448,5 1,5 Z" id="Path"></path>
            <path d="M5,5 C5.552,5 6,4.62666667 6,4.16666667 L6,0.833333333 C6,0.373333333 5.552,0 5,0 C4.448,0 4,0.373333333 4,0.833333333 L4,4.16666667 C4,4.62666667 4.448,5 5,5 Z" id="Path"></path>
            <path d="M9,5 C9.553,5 10,4.62666667 10,4.16666667 L10,2.5 C10,2.04 9.553,1.66666667 9,1.66666667 C8.448,1.66666667 8,2.04 8,2.5 L8,4.16666667 C8,4.62666667 8.448,5 9,5 Z" id="Path"></path>
        </g>
    </g>
</svg>