<?xml version="1.0" encoding="UTF-8"?>
<svg width="24px" height="24px" viewBox="0 0 24 24" version="1.1" xmlns="http://www.w3.org/2000/svg" xmlns:xlink="http://www.w3.org/1999/xlink">
    <!-- Generator: Sketch 51.3 (57544) - http://www.bohemiancoding.com/sketch -->
    <title>icons/DevelopmentIcon</title>
    <desc>Created with Sketch.</desc>
    <defs></defs>
    <g id="icons/DevelopmentIcon" stroke="none" stroke-width="1" fill="none" fill-rule="evenodd">
        <path d="M21.1428571,11.4285714 L19.4285714,11.4285714 L19.4285714,6.85714286 C19.4285714,5.6 18.4,4.57142857 17.1428571,4.57142857 L12.5714286,4.57142857 L12.5714286,2.85714286 C12.5714286,1.28 11.2914286,0 9.71428571,0 C8.13714286,0 6.85714286,1.28 6.85714286,2.85714286 L6.85714286,4.57142857 L2.28571429,4.57142857 C1.02857143,4.57142857 0.0114285714,5.6 0.0114285714,6.85714286 L0.0114285714,11.2 L1.71428571,11.2 C3.41714286,11.2 4.8,12.5828571 4.8,14.2857143 C4.8,15.9885714 3.41714286,17.3714286 1.71428571,17.3714286 L0,17.3714286 L0,21.7142857 C0,22.9714286 1.02857143,24 2.28571429,24 L6.62857143,24 L6.62857143,22.2857143 C6.62857143,20.5828571 8.01142857,19.2 9.71428571,19.2 C11.4171429,19.2 12.8,20.5828571 12.8,22.2857143 L12.8,24 L17.1428571,24 C18.4,24 19.4285714,22.9714286 19.4285714,21.7142857 L19.4285714,17.1428571 L21.1428571,17.1428571 C22.72,17.1428571 24,15.8628571 24,14.2857143 C24,12.7085714 22.72,11.4285714 21.1428571,11.4285714 Z" id="Shape" fill="#000000" fill-rule="nonzero"></path>
    </g>
</svg>