<?xml version="1.0" encoding="UTF-8"?>
<svg width="24px" height="24px" viewBox="0 0 24 24" version="1.1" xmlns="http://www.w3.org/2000/svg" xmlns:xlink="http://www.w3.org/1999/xlink">
    <title>icons/DrinkIcon</title>
    <g id="icons/DrinkIcon" stroke="none" stroke-width="1" fill="none" fill-rule="evenodd">
        <path d="M13.488598,12.498447 C13.685871,12.904299 13.821049,13.354472 13.860968,13.885191 L13.860968,20 C13.860968,20 13.860968,20.475708 13.450238,20.65387 C13.039508,20.832031 10.626385,21.025024 10.626385,21.515198 C10.626385,22.005371 12.667462,22 14.576519,22 C16.485577,22 18.526654,22.005371 18.526654,21.515198 C18.526654,21.025024 16.113531,20.832031 15.702801,20.65387 C15.292071,20.475708 15.292071,20 15.292071,20 L15.319441,14 C15.464135,11 18.595401,10.543132 19.101668,6.5 C19.607934,2.456868 18.595401,0 18.595401,0 L14.592083,0 L10.592083,0 C10.592083,0 10.44831,0.348861 10.296205,1 L13.595401,1 L14.264872,1 L14.519963,1.618967 C14.622253,1.867169 14.761292,2.301061 14.89569,2.90706 C15.253821,4.521867 15.36688,6.444332 15.093919,8.624246 C14.896912,10.197582 14.399295,11.309571 13.488598,12.498447 L13.488598,12.498447 Z M10.292071,22 C10.292071,22 10.292071,22.475708 10.702801,22.65387 C11.113531,22.832031 13.526654,23.025024 13.526654,23.515198 C13.526654,24.005371 11.485577,24 9.576519,24 C7.667462,24 5.626385,24.005371 5.626385,23.515198 C5.626385,23.025024 8.039508,22.832031 8.450238,22.65387 C8.860968,22.475708 8.860968,22 8.860968,22 L8.860968,15.885191 C8.643024,12.98762 5.585554,12.490991 5.085817,8.5 C4.579551,4.456868 5.592083,2 5.592083,2 L9.592083,2 L13.595401,2 C13.595401,2 14.607934,4.456868 14.101668,8.5 C13.595401,12.543132 10.464135,13 10.319441,16 L10.292071,22 Z" id="food-drink-wine-glasses-glyph" fill="#000000" fill-rule="nonzero"></path>
    </g>
</svg>