<?xml version="1.0" encoding="UTF-8"?>
<svg width="24px" height="24px" viewBox="0 0 24 24" version="1.1" xmlns="http://www.w3.org/2000/svg" xmlns:xlink="http://www.w3.org/1999/xlink">
    <title>icons/FoodIcon</title>
    <g id="icons/FoodIcon" stroke="none" stroke-width="1" fill="none" fill-rule="evenodd">
        <path d="M6.31578958,0 C5.65789463,0 5,0.657884211 5,1.3158 L5,5.92105263 L5,7.89473684 C5,9.21053684 6.31578958,9.21053684 6.31578958,10.5263053 L6.31578958,22.3684263 C6.31578958,23.0263105 6.97368421,23.6841947 7.63157884,23.6841947 L8.94736842,23.6841947 C9.60526305,23.6841947 10.263158,23.0263105 10.263158,22.3684263 L10.263158,10.5263053 C10.263158,9.21053684 11.5789473,9.21053684 11.5789473,7.89473684 L11.5789473,5.92105263 L11.5789473,5.26316842 L11.5789473,1.3158 C11.5789473,0.657884211 10.9210526,0 10.263158,0 C9.93421053,0 9.93421053,0.401178947 9.93421053,0.657884211 L9.93421053,5.92105263 C9.93421053,6.17775789 9.93421053,6.57893684 9.60526305,6.57893684 C9.27631589,6.57893684 9.27631589,6.17775789 9.27631589,5.92105263 L9.27631589,0.657884211 C9.27631589,0.401178947 9.27631589,0 8.94736842,0 L8.61842095,0 L7.63157884,0 C7.30263168,0 7.30263168,0.401178947 7.30263168,0.657884211 L7.30263168,5.92105263 C7.30263168,6.17775789 7.30263168,6.57893684 6.97368421,6.57893684 C6.64473674,6.57893684 6.64473674,6.17775789 6.64473674,5.92105263 L6.64473674,0.657884211 C6.64473674,0.401178947 6.64473674,0 6.31578958,0 L6.31578958,0 Z M19.4736832,0 C18.1578958,0 15.7006053,0.309347368 14.8684211,1.97368421 C14.2105264,3.28948421 14.2105264,6.57893684 14.2105264,7.89473684 L14.2105264,13.1578895 C14.2105264,13.8158053 14.8684211,14.4736895 15.526316,14.4736895 L15.526316,22.3684263 C15.526316,23.0263105 16.1842106,23.6841947 16.8421053,23.6841947 L18.1578958,23.6841947 C18.8157895,23.6841947 19.4736832,23.0263105 19.4736832,22.3684263 L19.4736832,0 Z" id="Shape" fill="#000000" fill-rule="nonzero"></path>
    </g>
</svg>