<?xml version="1.0" encoding="UTF-8"?>
<svg width="24px" height="24px" viewBox="0 0 24 24" version="1.1" xmlns="http://www.w3.org/2000/svg" xmlns:xlink="http://www.w3.org/1999/xlink">
    <!-- Generator: Sketch 52 (66869) - http://www.bohemiancoding.com/sketch -->
    <title>icons/GitHubIcon</title>
    <desc>Created with Sketch.</desc>
    <g id="icons/GitHubIcon" stroke="none" stroke-width="1" fill="none" fill-rule="evenodd">
        <path d="M3.11062884,10.9901188 C3.07252296,10.9894129 3.52838211,11.9543803 3.5410841,11.9543803 C4.53607078,13.7304287 6.45406646,14.8344588 9.68953744,15.14082 C9.22803296,15.4853 8.6733808,16.1389648 8.59646336,16.8942795 C8.01570163,17.263466 6.84782717,17.385587 5.94034282,17.1039323 C4.66803002,16.7093333 4.18112163,14.2337365 2.27653359,14.5866873 C1.86442562,14.6622188 1.94628269,14.9297555 2.30264318,15.1570557 C2.88340492,15.5269482 3.42958912,15.9893137 3.85087072,16.9726346 C4.17477066,17.7279493 4.85503107,19.0769272 7.0073073,19.0769272 C7.86116115,19.0769272 8.45956448,18.9759833 8.45956448,18.9759833 C8.45956448,18.9759833 8.47579478,20.9038004 8.47579478,21.6534679 C8.47579478,22.5181973 7.28886736,22.7617334 7.28886736,23.1775094 C7.28886736,23.3419844 7.6819224,23.3575143 7.99735437,23.3575143 C8.62116163,23.3575143 9.91887834,22.8457356 9.91887834,21.9471229 C9.91887834,21.2334565 9.93087462,18.8333911 9.93087462,18.4133797 C9.93087462,17.4957076 10.4311907,17.2048762 10.4311907,17.2048762 C10.4311907,17.2048762 10.4932891,22.1038331 10.3119334,22.7617334 C10.0988228,23.5339897 9.71423568,23.4245749 9.71423568,23.7690549 C9.71423568,24.2815395 11.2765765,23.8954113 11.7945341,22.7694983 C12.1946458,21.8948862 12.0196411,17.0869907 12.0196411,17.0869907 L12.446568,17.0785198 C12.446568,17.0785198 12.4705606,19.278815 12.4557416,20.2847248 C12.4409227,21.3266355 12.3689449,22.6438478 12.9983975,23.2650412 C13.4119168,23.6737582 14.7512677,24.3902483 14.7512677,23.7351716 C14.7512677,23.3546907 14.0173768,23.0419763 14.0173768,22.0120659 L14.0173768,17.2719369 C14.6037839,17.2719369 14.5155758,18.8305675 14.5155758,18.8305675 L14.5586213,21.7268817 C14.5586213,21.7268817 14.4287791,22.7814986 15.7194392,23.2226871 C16.1745927,23.3801031 17.1484094,23.4217513 17.1942776,23.159156 C17.2401458,22.8958547 16.0214635,22.5040793 16.0101729,21.6880571 C16.0031162,21.1889847 16.0327541,20.8981532 16.0327541,18.7324472 C16.0327541,16.5667412 15.7370808,15.7662488 14.7061052,15.1281138 C17.88724,14.8069286 19.8567492,14.0332604 20.815747,11.9614394 C20.8905474,11.9635571 21.2073907,10.9936483 21.1657565,10.9936483 C21.3809841,10.2115093 21.4974188,9.28607238 21.52,8.19051315 C21.5143547,5.21866755 20.0677428,4.16758009 19.7904167,3.67415491 C20.199702,1.4244466 19.7212616,0.400889327 19.499683,0.0493503476 C18.6797011,-0.237245691 16.6480934,0.787017487 15.5373778,1.50774299 C13.7280544,0.987493532 9.9019424,1.03761255 8.46732682,1.64186429 C5.82037987,-0.221009956 4.41963619,0.0641742804 4.41963619,0.0641742804 C4.41963619,0.0641742804 3.51426883,1.65880593 4.18041597,3.99251651 C3.30962618,5.08384035 2.66041499,5.85609667 2.66041499,7.90250531 C2.66112066,9.0566544 2.79943087,10.0886825 3.11062884,10.9901188 Z" id="Shape" fill="#000000" fill-rule="nonzero"></path>
    </g>
</svg>