<?xml version="1.0" encoding="UTF-8"?>
<svg width="24px" height="24px" viewBox="0 0 24 24" version="1.1" xmlns="http://www.w3.org/2000/svg" xmlns:xlink="http://www.w3.org/1999/xlink">
    <title>icons/HotelIcon</title>
    <g id="icons/HotelIcon" stroke="none" stroke-width="1" fill="none" fill-rule="evenodd">
        <path d="M23.175,10.5 L21,8.3265 L21,3 C21,2.175 20.325,1.5 19.5,1.5 L18,1.5 C17.175,1.5 16.5,2.175 16.5,3 L16.5,3.8295 L13.5,0.8325 C13.0905,0.4455 12.7155,0 12,0 C11.2845,0 10.9095,0.4455 10.5,0.8325 L0.825,10.5 C0.357,10.9875 0,11.343 0,12 C0,12.8445 0.648,13.5 1.5,13.5 L3,13.5 L3,22.5 C3,23.325 3.675,24 4.5,24 L9,24 L9,16.5 C9,15.675 9.675,15 10.5,15 L13.5,15 C14.325,15 15,15.675 15,16.5 L15,24 L19.5,24 C20.325,24 21,23.325 21,22.5 L21,13.5 L22.5,13.5 C23.352,13.5 24,12.8445 24,12 C24,11.343 23.643,10.9875 23.175,10.5 Z" id="Shape" fill="#000000" fill-rule="nonzero"></path>
    </g>
</svg>