<?xml version="1.0" encoding="UTF-8"?>
<svg width="24px" height="24px" viewBox="0 0 24 24" version="1.1" xmlns="http://www.w3.org/2000/svg" xmlns:xlink="http://www.w3.org/1999/xlink">
    <!-- Generator: Sketch 52 (66869) - http://www.bohemiancoding.com/sketch -->
    <title>icons/KeybaseIcon</title>
    <desc>Created with Sketch.</desc>
    <g id="icons/KeybaseIcon" stroke="none" stroke-width="1" fill="none" fill-rule="evenodd">
        <path d="M10.5802971,21.2727273 C10.5802971,21.7255575 10.147528,22.0909091 9.61453878,22.0909091 C9.08306803,22.0909091 8.64878048,21.7255575 8.64878048,21.2727273 C8.64878048,20.82247 9.08154954,20.4545454 9.61302029,20.4545454 C10.144491,20.4545454 10.5772601,20.8237564 10.5772601,21.2740137 M16.5707317,21.2727273 C16.5707317,21.7255575 16.1379627,22.0909091 15.6049734,22.0909091 C15.0719842,22.0909091 14.6407336,21.7255575 14.6407336,21.2727273 C14.6407336,20.82247 15.0689472,20.4545454 15.6019364,20.4545454 C16.1349257,20.4545454 16.5676947,20.8237564 16.5676947,21.2740137" id="Shape" fill="#000000" fill-rule="nonzero"></path>
        <path d="M21.0362037,12.009 C20.9907461,11.949 20.9407428,11.892 20.8922546,11.8335 C20.846797,11.7735 20.7983089,11.721 20.751336,11.6655 C20.6452682,11.5455 20.5392004,11.4255 20.4270716,11.3055 L20.3513089,11.226 L20.2603937,11.127 L20.1240208,10.9965 C20.1088683,10.9785 20.0906852,10.962 20.0725022,10.944 C18.9012108,9.804 17.542028,8.9565 16.0767774,8.439 L15.8434283,8.361 C15.8555503,8.334 15.8691876,8.307 15.8797944,8.2785 C16.2934587,7.2135 16.2510316,6.0555 15.758574,5.0235 C15.263086,3.9885 14.3887844,3.2235 13.294771,2.8635 C12.632605,2.6475 12.0522627,2.544 11.5673814,2.559 C11.5340459,2.454 11.4658594,1.9815 12.0674153,0.711 L10.849151,0 L10.5582223,0.399 C10.2248664,0.855 9.90363254,1.2945 9.60361226,1.728 C8.55808698,3.52643946 7.92084515,5.0536377 7.69188672,6.30959472 C7.62521552,7.14959472 7.69893798,7.878 8.03532435,8.5635 C6.6761415,9.1245 5.42302646,9.9645 4.33810458,11.0475 C1,14.391 1,18.051 1,20.994 L1,22.7685 L2.31827099,21.3825 C2.58495569,22.3125 2.97589123,23.19 3.47289454,23.9985 L5.18816208,23.9985 C4.3471961,22.884 3.75473179,21.573 3.49107759,20.151 L5.4245417,18.12 L4.42901981,21.21 L6.18671446,19.944 C9.29298518,17.709 12.9992965,17.193 17.2071569,18.414 C19.0315227,18.9465 20.8043699,18.453 21.7256443,17.157 L21.8317121,16.992 C21.9226273,17.49 21.9726307,17.9895 21.9726307,18.4875 C21.9726307,20.0505 21.7150375,22.1745 20.578597,24 L22.2059798,24 C22.9908814,22.437 23.4,20.568 23.4,18.4875 C23.4,16.2885 22.6060069,14.067 21.1953054,12.213 L21.0362037,12.009 Z M11.9963096,11.2497308 C11.9288028,11.3031926 11.8545453,11.3276959 11.7780375,11.3276959 C11.6790275,11.3276959 11.5800175,11.2831444 11.5125107,11.2029518 L11.3459938,11.00247 C11.2222313,10.8532225 11.2447336,10.6304651 11.3977491,10.5057209 L12.1628265,9.88199997 L10.5786662,7.95292026 C10.4166498,7.75689366 10.4436525,7.46285382 10.646173,7.30692358 C10.7316817,7.23564118 10.8351921,7.2 10.9387026,7.2 C11.0737163,7.2 11.2087299,7.25568938 11.298739,7.3670681 L15.7429387,12.7800747 C15.9072053,12.9805564 15.8779524,13.2701411 15.6799323,13.4260713 C15.6214264,13.4706228 15.5561698,13.5040364 15.4909132,13.5196295 C15.4549096,13.5285398 15.4234064,13.5329949 15.3851525,13.5329949 C15.2501388,13.5329949 15.1196256,13.4728504 15.0251161,13.3636992 L14.5818212,12.8223986 L13.0134125,14.0921162 C12.9459057,14.145578 12.8648975,14.1723089 12.7838893,14.1723089 C12.6803788,14.1723089 12.5746181,14.1277574 12.5048611,14.0386544 L11.7915389,13.1788105 C11.6677764,13.0273355 11.6880284,12.804578 11.8432941,12.6798338 L13.4184535,11.4056611 L12.7771386,10.6170996 L11.9963096,11.2497308 Z" id="Shape" fill="#000000" fill-rule="nonzero"></path>
    </g>
</svg>