<?xml version="1.0" encoding="UTF-8"?>
<svg width="24px" height="24px" viewBox="0 0 24 24" version="1.1" xmlns="http://www.w3.org/2000/svg" xmlns:xlink="http://www.w3.org/1999/xlink">
    <!-- Generator: Sketch 52 (66869) - http://www.bohemiancoding.com/sketch -->
    <title>icons/LinkedInIcon</title>
    <desc>Created with Sketch.</desc>
    <g id="icons/LinkedInIcon" stroke="none" stroke-width="1" fill="none" fill-rule="evenodd">
        <path d="M24,23.9992073 L24,14.7147151 C24,9.74031379 21.360275,7.42553261 17.841167,7.42553261 C15.0012957,7.42553261 13.7287119,8.99752272 13.0195321,10.1002147 L13.0195321,7.80604458 L7.66916413,7.80604458 C7.74008211,9.32571427 7.66916413,23.9992073 7.66916413,23.9992073 L13.0195321,23.9992073 L13.0195321,14.955706 C13.0195321,14.4729315 13.0542031,13.9893642 13.1960391,13.6437324 C13.5821481,12.6765979 14.4623191,11.6753757 15.9397771,11.6753757 C17.876626,11.6753757 18.65042,13.1601652 18.65042,15.336218 L18.65042,24 L24,24 L24,23.9992073 Z M2.99116299,5.59590422 C4.85630598,5.59590422 6.01857296,4.35131296 6.01857296,2.796763 C5.98390192,1.20891825 4.85630598,1.77635684e-15 3.02662198,1.77635684e-15 C1.19693798,1.77635684e-15 0,1.20812552 0,2.796763 C0,4.35131296 1.16147899,5.59590422 2.95727995,5.59590422 L2.99116299,5.59590422 Z M5.66634694,23.9992073 L5.66634694,7.80604458 L0.316766997,7.80604458 L0.316766997,23.9992073 L5.66634694,23.9992073 Z" id="Shape" fill="#000000" fill-rule="nonzero"></path>
    </g>
</svg>