<?xml version="1.0" encoding="UTF-8"?>
<svg width="24px" height="24px" viewBox="0 0 24 24" version="1.1" xmlns="http://www.w3.org/2000/svg" xmlns:xlink="http://www.w3.org/1999/xlink">
    <!-- Generator: Sketch 52 (66869) - http://www.bohemiancoding.com/sketch -->
    <title>icons/MicroBlogIcon</title>
    <desc>Created with Sketch.</desc>
    <g id="icons/MicroBlogIcon" stroke="none" stroke-width="1" fill="none" fill-rule="evenodd">
        <path d="M21.3118697,17.6906933 C22.8916604,15.8324646 23.8350916,13.4943744 23.8350916,10.9518988 C23.8350916,4.90130053 18.4993487,0 11.9175458,0 C5.33574297,0 0,4.90130053 0,10.9518988 C0,17.002497 5.33574297,21.9037975 11.9175458,21.9037975 C13.3665531,21.9061163 14.8054652,21.6627365 16.1731069,21.1840054 C16.3323876,21.1293056 16.5087238,21.1847484 16.608043,21.3207561 C17.6038048,22.6650592 19.1589113,23.6104651 20.8882884,23.9950454 C20.9855521,24.0152474 21.0850725,23.9725069 21.1373945,23.8880631 C21.1897166,23.8036193 21.1836841,23.6954774 21.1222949,23.6173767 C19.7584165,21.8489685 19.8412568,19.3614799 21.3197687,17.6877312 L21.3118697,17.6906933 Z M17.5702343,9.66436938 L14.5009972,11.9940669 L15.6147497,15.6828781 C15.6577349,15.8249085 15.6060785,15.9785819 15.4860296,16.0658093 C15.3659806,16.1530367 15.203866,16.1546891 15.082064,16.0699268 L11.9175458,13.870562 L8.75352133,16.0699268 C8.63171933,16.1546891 8.46960468,16.1530367 8.34955573,16.0658093 C8.22950678,15.9785819 8.17785038,15.8249085 8.22083566,15.6828781 L9.33458808,11.9940669 L6.26485735,9.66436938 C6.14680726,9.57468222 6.09841189,9.42013238 6.14422546,9.27913334 C6.19003902,9.13813431 6.32003407,9.04154728 6.4682554,9.03837733 L10.3189951,8.95790675 L11.5862835,5.31895769 C11.6351549,5.17906334 11.7671391,5.08536513 11.9153242,5.08536513 C12.0635094,5.08536513 12.1954936,5.17906334 12.244365,5.31895769 L13.5116533,8.95790675 L17.3623931,9.03837733 C17.5114228,9.03970118 17.6431207,9.13563454 17.6900826,9.27707784 C17.7370445,9.41852115 17.6888776,9.57417301 17.5702343,9.66436938 Z" id="Shape" fill="#000000" fill-rule="nonzero"></path>
    </g>
</svg>