<?xml version="1.0" encoding="UTF-8"?>
<svg width="24px" height="24px" viewBox="0 0 24 24" version="1.1" xmlns="http://www.w3.org/2000/svg" xmlns:xlink="http://www.w3.org/1999/xlink">
    <!-- Generator: Sketch 51.3 (57544) - http://www.bohemiancoding.com/sketch -->
    <title>icons/RunningIcon</title>
    <desc>Created with Sketch.</desc>
    <defs></defs>
    <g id="icons/RunningIcon" stroke="none" stroke-width="1" fill="none" fill-rule="evenodd">
        <path d="M20.1790884,3.94917209 C19.3875349,5.03073488 17.8968558,5.24494884 16.8494512,4.42772093 C15.8020465,3.6103814 15.5945302,2.07103256 16.3860837,0.989469767 C17.1776372,-0.0920930233 18.6683163,-0.306306977 19.7157209,0.51092093 C20.7631256,1.32814884 20.9705302,2.86749767 20.1790884,3.94917209 Z" id="Shape" fill="#000000" fill-rule="nonzero"></path>
        <path d="M7.97704186,12.1222326 L5.86493023,15.0083721 L1.59929302,13.7365953 C0.961004651,13.5462698 0.294251163,13.9263628 0.109953488,14.585414 L0.059944186,14.7642419 C-0.124353488,15.423293 0.243683721,16.1119256 0.881972093,16.3021395 L6.85272558,18.0879628 L9.26165581,14.7962791 L7.97704186,12.1222326 Z" id="Shape" fill="#000000" fill-rule="nonzero"></path>
        <path d="M23.0825302,11.9706419 L20.0834233,11.1623442 L18.6303628,8.13745116 L16.8876279,10.5189209 L18.0574884,12.9541953 L18.058493,12.9536372 C18.2100837,13.2540279 18.4792186,13.489786 18.821693,13.5819907 L22.429507,14.5543814 C23.0722605,14.7276279 23.729414,14.3300093 23.8971907,13.6662698 L23.9427349,13.4861023 C24.1104,12.8224744 23.7252837,12.144 23.0825302,11.9706419 Z" id="Shape" fill="#000000" fill-rule="nonzero"></path>
        <path d="M14.0597581,3.81019535 L9.42507907,2.90087442 C9.42507907,2.90087442 8.3424,4.3803907 8.07449302,4.7464186 L5.82653023,7.81819535 C5.4260093,8.36550698 5.53105116,9.14444651 6.06106047,9.55802791 L6.20494884,9.67032558 C6.42195349,9.83966512 6.67668837,9.92148837 6.9291907,9.92148837 C7.29343256,9.92148837 7.65332093,9.75136744 7.88974884,9.42820465 L10.5200372,5.83389767 L12.3202605,6.18708837 L8.79906977,10.9986977 L12.0717767,17.8114605 L9.22068837,21.707386 C8.82016744,22.2546977 8.9252093,23.0336372 9.4552186,23.4472186 L9.59910698,23.5595163 C9.81611163,23.7288558 10.0708465,23.8106791 10.3233488,23.8106791 C10.6875907,23.8106791 11.0474791,23.6405581 11.283907,23.3173953 L14.4746791,18.9573209 C14.6194605,18.7595163 15.0991256,18.1040372 15.0991256,18.1040372 L13.0198326,13.7754419 L18.0437581,6.91043721 L14.0636651,3.80472558 L14.0597581,3.81019535 Z" id="Shape" fill="#000000" fill-rule="nonzero"></path>
    </g>
</svg>