<?xml version="1.0" encoding="UTF-8"?>
<svg width="24px" height="24px" viewBox="0 0 24 24" version="1.1" xmlns="http://www.w3.org/2000/svg" xmlns:xlink="http://www.w3.org/1999/xlink">
    <!-- Generator: Sketch 52 (66869) - http://www.bohemiancoding.com/sketch -->
    <title>icons/SecurityIcon</title>
    <desc>Created with Sketch.</desc>
    <g id="icons/SecurityIcon" stroke="none" stroke-width="1" fill="none" fill-rule="evenodd">
        <path d="M19,8 L17.8571429,8 L17.8571429,5.71428571 C17.8571429,2.56 15.2971429,0 12.1428571,0 C8.98857143,0 6.42857143,2.56 6.42857143,5.71428571 L6.42857143,8 L5.28571429,8 C4.02857143,8 3,9.02857143 3,10.2857143 L3,21.7142857 C3,22.9714286 4.02857143,24 5.28571429,24 L19,24 C20.2571429,24 21.2857143,22.9714286 21.2857143,21.7142857 L21.2857143,10.2857143 C21.2857143,9.02857143 20.2571429,8 19,8 Z M12.1428571,18.2857143 C10.8857143,18.2857143 9.85714286,17.2571429 9.85714286,16 C9.85714286,14.7428571 10.8857143,13.7142857 12.1428571,13.7142857 C13.4,13.7142857 14.4285714,14.7428571 14.4285714,16 C14.4285714,17.2571429 13.4,18.2857143 12.1428571,18.2857143 Z M15.6857143,8 L8.6,8 L8.6,5.71428571 C8.6,3.76 10.1885714,2.17142857 12.1428571,2.17142857 C14.0971429,2.17142857 15.6857143,3.76 15.6857143,5.71428571 L15.6857143,8 Z" id="Shape" fill="#000000" fill-rule="nonzero"></path>
    </g>
</svg>