<?xml version="1.0" encoding="UTF-8"?>
<svg width="24px" height="24px" viewBox="0 0 24 24" version="1.1" xmlns="http://www.w3.org/2000/svg" xmlns:xlink="http://www.w3.org/1999/xlink">
    <title>icons/SkiingIcon</title>
    <g id="icons/SkiingIcon" stroke="none" stroke-width="1" fill="none" fill-rule="evenodd">
        <circle id="Oval" fill="#000000" fill-rule="nonzero" cx="20.4" cy="2.4" r="2.4"></circle>
        <path d="M9.96,5.4 C9.96,5.4 12.12,2.4 15.36,2.4 C17.04,2.4 18,3.48 18,4.92 C18,5.16 17.88,9.36 17.88,9.36 L16.92,6.6 L13.92,8.4 L9.96,5.4 Z" id="Shape" fill="#000000" fill-rule="nonzero"></path>
        <line x1="14.4" y1="7.68" x2="3.72" y2="0.96" id="Shape" stroke="#000000" stroke-width="1.5"></line>
        <path d="M22.08,20.4 C20.4,21.24 18,20.76 16.32,19.8 L1.32,11.28 L0.12,13.32 L15.12,21.84 C16.08,22.44 17.28,22.68 18.36,22.68 C19.44,22.68 20.4,22.44 21.36,21.96 L23.28,20.88 L22.08,20.4 Z" id="Shape" fill="#000000" fill-rule="nonzero"></path>
        <path d="M21.72,12.12 L18.12,9.84 C17.28,9.36 16.8,8.4 16.8,7.32 C16.8,6.24 16.8,5.04 16.8,5.04" id="Shape" stroke="#000000" stroke-width="2"></path>
        <path d="M8.64,16.92 L13.68,14.04 C14.64,13.44 14.76,12.12 13.8,11.52 C12.12,10.32 9.84,8.88 9.84,8.88" id="Shape" stroke="#000000" stroke-width="2"></path>
        <path d="M14.16,10.44 L8.64,6.6 L8.16,7.08 C6.96,8.28 7.32,10.2 8.76,10.92 L13.92,13.44 L14.16,10.44 Z" id="Shape" fill="#000000" fill-rule="nonzero"></path>
    </g>
</svg>