<?xml version="1.0" encoding="UTF-8"?>
<svg width="24" height="24" viewBox="0 0 24 24" xmlns="http://www.w3.org/2000/svg">
  <title>icons/TrainIcon</title>
  <g id="icons/TrainIcon" stroke="none" stroke-width="1" fill="none" fill-rule="evenodd">
    <path d="M16.4467 18.7326C17.6176 18.5439 18.7832 17.3227 18.7832 15.8343V4.95251C18.7832 3.41623 17.4908 2.00604 15.7349 2.00604H8.22335C6.4675 2.00604 5.17506 3.41623 5.17506 4.95251V15.8343C5.17506 17.3227 6.34065 18.5439 7.51158 18.7326L4 24H6.02598L8.53776 20.3177H15.4205L17.9323 24H19.9582L16.4467 18.7326ZM10.0009 3.12619C10.0009 2.85905 10.2333 2.63466 10.5004 2.63466H13.4579C13.725 2.63466 13.9573 2.85905 13.9573 3.12619V3.99121C13.9573 4.25835 13.7377 4.48799 13.4579 4.48799H10.5004C10.2205 4.48799 10.0009 4.25835 10.0009 3.99121V3.12619ZM6.80634 6.599C6.80634 5.78486 7.33288 5.07443 8.32511 5.07443H15.6331C16.6254 5.07443 17.152 5.78486 17.152 6.599V8.55802C17.1596 9.49937 16.4727 10.0757 15.6331 10.0757H8.32511C7.48553 10.0757 6.7986 9.49937 6.80634 8.55802V6.599ZM8.15974 17.1453C7.42167 17.1453 6.82338 16.5469 6.82338 15.8089C6.82338 15.0709 7.42167 14.4725 8.15974 14.4725C8.89781 14.4725 9.4961 15.0709 9.4961 15.8089C9.4961 16.5469 8.89781 17.1453 8.15974 17.1453ZM14.4312 15.8089C14.4312 15.0709 15.0294 14.4726 15.7675 14.4726C16.5056 14.4726 17.1039 15.0709 17.1039 15.8089C17.1039 16.547 16.5056 17.1454 15.7675 17.1454C15.0294 17.1454 14.4312 16.5469 14.4312 15.8089ZM13.945 0.844262C13.945 1.31054 13.567 1.68852 13.1008 1.68852C12.6345 1.68852 12.2565 1.31054 12.2565 0.844262C12.2565 0.377989 12.6345 0 13.1008 0C13.567 0 13.945 0.377989 13.945 0.844262ZM11.7018 0.844262C11.7018 1.31054 11.3238 1.68852 10.8575 1.68852C10.3912 1.68852 10.0132 1.31054 10.0132 0.844262C10.0132 0.377989 10.3912 0 10.8575 0C11.3238 0 11.7018 0.377989 11.7018 0.844262Z" id="Shape" fill="#000000" fill-rule="nonzero"/>
  </g>
</svg>
