<?xml version="1.0" encoding="UTF-8"?>
<svg width="24px" height="24px" viewBox="0 0 24 24" version="1.1" xmlns="http://www.w3.org/2000/svg" xmlns:xlink="http://www.w3.org/1999/xlink">
    <title>icons/TwitterIcon</title>
    <g id="icons/TwitterIcon" stroke="none" stroke-width="1" fill="none" fill-rule="evenodd">
        <path d="M15.0345556,2.23394857 C12.8671366,3.02176509 11.4974999,5.05372 11.653084,7.27746237 L11.7052213,8.13554582 L10.8379226,8.03055875 C7.68237904,7.62797043 4.92489901,6.26231158 2.58368925,3.96747558 L1.43915298,2.82915098 L1.14453627,3.6698744 C0.520544694,5.54393533 0.919435862,7.52298336 2.21955624,8.85392208 C2.91306412,9.5896584 2.75665244,9.6946455 1.56080651,9.25651037 C1.14453627,9.11680314 0.780403258,9.01181606 0.745645104,9.06389626 C0.624819149,9.18707011 1.04026182,10.7800632 1.36963668,11.4108124 C1.82066507,12.2870827 2.73927336,13.1443395 3.74560461,13.6527415 L4.59552416,14.0553298 L3.59002048,14.0726899 C2.61927498,14.0726899 2.58451683,14.09005 2.68879128,14.4587448 C3.03554522,15.5970694 4.40518189,16.805661 5.93123027,17.3314231 L7.00625024,17.6984646 L6.07026288,18.2589469 C4.6832471,19.0657768 3.0529243,19.5204453 1.42260148,19.5551655 C0.64137065,19.5716989 0,19.6419658 0,19.6948727 C0,19.8693001 2.11610936,20.8497307 3.34671344,21.2357856 C7.0401808,22.3741102 11.4279836,21.8830683 14.7225598,19.939567 C17.0637696,18.5565481 19.4041518,15.8062169 20.4973784,13.1435128 C21.0874394,11.724947 21.6766729,9.13333654 21.6766729,7.89085152 C21.6766729,7.08484822 21.7288101,6.97986115 22.6995556,6.01679056 C23.2722375,5.45630829 23.8093337,4.84374582 23.9136082,4.66849178 C24.0873989,4.33534374 24.0691923,4.33534374 23.1853421,4.63294496 C21.711431,5.1587071 21.5028821,5.08844013 22.2319757,4.30062362 C22.7690719,3.74014134 23.4112701,2.72416389 23.4112701,2.42656268 C23.4112701,2.37448247 23.1514116,2.46128282 22.8559673,2.61917679 C22.5439715,2.79443084 21.8504636,3.0573119 21.3299189,3.21437921 L20.3939316,3.51280707 L19.544012,2.93413807 C19.0756045,2.61917679 18.4176824,2.26866871 18.0701009,2.16368161 C17.1854231,1.91898729 15.832338,1.95370743 15.0345556,2.23394857 Z" id="Shape" fill="#000000" fill-rule="nonzero"></path>
    </g>
</svg>