<?xml version="1.0" encoding="UTF-8"?>
<svg width="24px" height="24px" viewBox="0 0 24 24" version="1.1" xmlns="http://www.w3.org/2000/svg" xmlns:xlink="http://www.w3.org/1999/xlink">
    <title>icons/WorkshopIcon</title>
    <g id="icons/WorkshopIcon" stroke="none" stroke-width="1" fill="none" fill-rule="evenodd">
        <path d="M7.4125,12.2 C6.0625,12.2416667 4.95833333,12.775 4.1,13.8 L2.425,13.8 C1.74166667,13.8 1.16666667,13.63125 0.7,13.29375 C0.233333333,12.95625 0,12.4625 0,11.8125 C0,8.87083333 0.516666667,7.4 1.55,7.4 C1.6,7.4 1.78125,7.4875 2.09375,7.6625 C2.40625,7.8375 2.8125,8.01458333 3.3125,8.19375 C3.8125,8.37291667 4.30833333,8.4625 4.8,8.4625 C5.35833333,8.4625 5.9125,8.36666667 6.4625,8.175 C6.42083333,8.48333333 6.4,8.75833333 6.4,9 C6.4,10.1583333 6.7375,11.225 7.4125,12.2 Z M20.8,20.1625 C20.8,21.1625 20.4958333,21.9520833 19.8875,22.53125 C19.2791667,23.1104167 18.4708333,23.4 17.4625,23.4 L6.5375,23.4 C5.52916667,23.4 4.72083333,23.1104167 4.1125,22.53125 C3.50416667,21.9520833 3.2,21.1625 3.2,20.1625 C3.2,19.7208333 3.21458333,19.2895833 3.24375,18.86875 C3.27291667,18.4479167 3.33125,17.99375 3.41875,17.50625 C3.50625,17.01875 3.61666667,16.5666667 3.75,16.15 C3.88333333,15.7333333 4.0625,15.3270833 4.2875,14.93125 C4.5125,14.5354167 4.77083333,14.1979167 5.0625,13.91875 C5.35416667,13.6395833 5.71041667,13.4166667 6.13125,13.25 C6.55208333,13.0833333 7.01666667,13 7.525,13 C7.60833333,13 7.7875,13.0895833 8.0625,13.26875 C8.3375,13.4479167 8.64166667,13.6479167 8.975,13.86875 C9.30833333,14.0895833 9.75416667,14.2895833 10.3125,14.46875 C10.8708333,14.6479167 11.4333333,14.7375 12,14.7375 C12.5666667,14.7375 13.1291667,14.6479167 13.6875,14.46875 C14.2458333,14.2895833 14.6916667,14.0895833 15.025,13.86875 C15.3583333,13.6479167 15.6625,13.4479167 15.9375,13.26875 C16.2125,13.0895833 16.3916667,13 16.475,13 C16.9833333,13 17.4479167,13.0833333 17.86875,13.25 C18.2895833,13.4166667 18.6458333,13.6395833 18.9375,13.91875 C19.2291667,14.1979167 19.4875,14.5354167 19.7125,14.93125 C19.9375,15.3270833 20.1166667,15.7333333 20.25,16.15 C20.3833333,16.5666667 20.49375,17.01875 20.58125,17.50625 C20.66875,17.99375 20.7270833,18.4479167 20.75625,18.86875 C20.7854167,19.2895833 20.8,19.7208333 20.8,20.1625 Z M8,4.2 C8,5.08333333 7.6875,5.8375 7.0625,6.4625 C6.4375,7.0875 5.68333333,7.4 4.8,7.4 C3.91666667,7.4 3.1625,7.0875 2.5375,6.4625 C1.9125,5.8375 1.6,5.08333333 1.6,4.2 C1.6,3.31666667 1.9125,2.5625 2.5375,1.9375 C3.1625,1.3125 3.91666667,1 4.8,1 C5.68333333,1 6.4375,1.3125 7.0625,1.9375 C7.6875,2.5625 8,3.31666667 8,4.2 Z M16.8,9 C16.8,10.325 16.33125,11.45625 15.39375,12.39375 C14.45625,13.33125 13.325,13.8 12,13.8 C10.675,13.8 9.54375,13.33125 8.60625,12.39375 C7.66875,11.45625 7.2,10.325 7.2,9 C7.2,7.675 7.66875,6.54375 8.60625,5.60625 C9.54375,4.66875 10.675,4.2 12,4.2 C13.325,4.2 14.45625,4.66875 15.39375,5.60625 C16.33125,6.54375 16.8,7.675 16.8,9 Z M24,11.8125 C24,12.4625 23.7666667,12.95625 23.3,13.29375 C22.8333333,13.63125 22.2583333,13.8 21.575,13.8 L19.9,13.8 C19.0416667,12.775 17.9375,12.2416667 16.5875,12.2 C17.2625,11.225 17.6,10.1583333 17.6,9 C17.6,8.75833333 17.5791667,8.48333333 17.5375,8.175 C18.0875,8.36666667 18.6416667,8.4625 19.2,8.4625 C19.6916667,8.4625 20.1875,8.37291667 20.6875,8.19375 C21.1875,8.01458333 21.59375,7.8375 21.90625,7.6625 C22.21875,7.4875 22.4,7.4 22.45,7.4 C23.4833333,7.4 24,8.87083333 24,11.8125 Z M22.4,4.2 C22.4,5.08333333 22.0875,5.8375 21.4625,6.4625 C20.8375,7.0875 20.0833333,7.4 19.2,7.4 C18.3166667,7.4 17.5625,7.0875 16.9375,6.4625 C16.3125,5.8375 16,5.08333333 16,4.2 C16,3.31666667 16.3125,2.5625 16.9375,1.9375 C17.5625,1.3125 18.3166667,1 19.2,1 C20.0833333,1 20.8375,1.3125 21.4625,1.9375 C22.0875,2.5625 22.4,3.31666667 22.4,4.2 Z" id="Shape" fill="#000000" fill-rule="nonzero"></path>
    </g>
</svg>